<svg width="57" height="80" viewBox="0 0 57 80" fill="none" xmlns="http://www.w3.org/2000/svg">
<g id="css" class="css">
<g id="Group 5249">
<g id="Group">
<path id="Vector" d="M28.0753 80L5.11632 73.5745L0 15.7219H56.2195L51.0978 73.5655L28.0753 80Z" fill="#264DE4"/>
<path id="Vector_2" d="M46.7131 69.8822L51.09 20.4522H28.1099V75.0817L46.7131 69.8822Z" fill="#2965F1"/>
<path id="Vector_3" d="M11.729 41.9089L12.3598 49.0042H28.1097V41.9089H11.729Z" fill="#EBEBEB"/>
<path id="Vector_4" d="M10.4614 27.5476L11.1012 34.6431H28.1096V27.5476H10.4614Z" fill="#EBEBEB"/>
<path id="Vector_5" d="M28.1098 60.3364L28.0789 60.3446L20.2405 58.2109L19.7395 52.552H12.6743L13.6604 63.6928L28.0774 67.7276L28.1098 67.7185V60.3364Z" fill="#EBEBEB"/>
<path id="Vector_6" d="M13.231 0H21.7553V3.59375H16.7957V7.18749H21.7553V10.7812H13.231V0Z" fill="black"/>
<path id="Vector_7" d="M23.4602 0H31.9846V3.125H27.0249V3.75H31.9846V10.9375H23.4602V7.65624H28.4198V7.03124H23.4602V0Z" fill="black"/>
<path id="Vector_8" d="M33.6895 0H42.2138V3.125H37.2542V3.75H42.2138V10.9375H33.6895V7.65624H38.6491V7.03124H33.6895V0Z" fill="black"/>
<path id="Vector_9" d="M44.4454 41.9088L45.716 27.5476H28.0854V34.6431H38.0028L37.3624 41.9088H28.0854V49.0041H36.7521L35.9351 58.2063L28.0854 60.3423V67.7241L42.5139 63.6927L42.6198 62.494L44.2737 43.8141L44.4454 41.9088Z" fill="white"/>
</g>
</g>
</g>
</svg>
