<svg width="76" height="113" viewBox="0 0 76 113" fill="none" xmlns="http://www.w3.org/2000/svg">
<g id="figma">
<path id="Vector" fill-rule="evenodd" clip-rule="evenodd" d="M37.0337 56.5001C37.0337 45.7493 45.7493 37.0337 56.5001 37.0337C67.2509 37.0337 75.9665 45.7493 75.9665 56.5001C75.9665 67.2509 67.2509 75.9665 56.5001 75.9665C45.7493 75.9665 37.0337 67.2509 37.0337 56.5001Z" fill="#1ABCFE"/>
<path id="Vector_2" fill-rule="evenodd" clip-rule="evenodd" d="M0 94.4831C0 84.2567 8.29025 75.9663 18.5168 75.9663H37.0336V94.4831C37.0336 104.709 28.7432 113 18.5168 113C8.29025 113 0 104.709 0 94.4831Z" fill="#0ACF83"/>
<path id="Vector_3" fill-rule="evenodd" clip-rule="evenodd" d="M37.0337 0V37.0336H56.5001C67.2509 37.0336 75.9665 28.7432 75.9665 18.5168C75.9665 8.29025 67.2509 0 56.5001 0H37.0337Z" fill="#FF7262"/>
<path id="Vector_4" fill-rule="evenodd" clip-rule="evenodd" d="M0 18.5168C0 28.7432 8.29025 37.0336 18.5168 37.0336H37.0336V0H18.5168C8.29025 0 0 8.29025 0 18.5168Z" fill="#F24E1E"/>
<path id="Vector_5" fill-rule="evenodd" clip-rule="evenodd" d="M0 56.5001C0 67.2509 8.29025 75.9665 18.5168 75.9665H37.0336V37.0337H18.5168C8.29025 37.0337 0 45.7493 0 56.5001Z" fill="#A259FF"/>
</g>
</svg>
