<svg width="80" height="80" viewBox="0 0 80 80" fill="none" xmlns="http://www.w3.org/2000/svg">
<g id="git" class="git">
<path id="Vector" d="M1.67246 44.0378C-0.557486 41.8078 -0.557486 38.1923 1.67246 35.9623L35.9623 1.67246C38.1923 -0.557486 41.8078 -0.557486 44.0378 1.67246L78.3275 35.9623C80.5575 38.1923 80.5575 41.8078 78.3275 44.0378L44.0378 78.3275C41.8078 80.5575 38.1923 80.5575 35.9623 78.3275L1.67246 44.0378Z" fill="#EE513B"/>
<path id="Vector_2" d="M29.4332 13L26 16.4483L34.8674 25.3544C34.5086 26.1273 34.3084 26.9894 34.3084 27.8984C34.3084 30.4792 35.9228 32.6813 38.1927 33.5413V55.3279C35.9228 56.1878 34.3084 58.3899 34.3084 60.9707C34.3084 64.3006 36.9961 67 40.3115 67C43.6269 67 46.3146 64.3006 46.3146 60.9707C46.3146 58.6311 44.9877 56.6024 43.0484 55.6031V33.571L51.5248 42.0844C51.1836 42.8417 50.9937 43.6824 50.9937 44.5676C50.9937 47.8975 53.6814 50.5969 56.9969 50.5969C60.3123 50.5969 63 47.8975 63 44.5676C63 41.2378 60.3123 38.5383 56.9969 38.5383C56.3525 38.5383 55.7321 38.6402 55.1501 38.8289L46.0466 29.6856C46.2209 29.121 46.3146 28.5206 46.3146 27.8984C46.3146 24.5685 43.6269 21.869 40.3115 21.869C39.692 21.869 39.0945 21.9633 38.532 22.1384L29.4332 13Z" fill="white"/>
</g>
</svg>
