<svg width="82" height="80" viewBox="0 0 82 80" fill="none" xmlns="http://www.w3.org/2000/svg">
<g id="github">
<path id="Vector" fill-rule="evenodd" clip-rule="evenodd" d="M41 0C18.3475 0 0 18.3528 0 41.0118C0 59.1595 11.7362 74.4876 28.0337 79.9217C30.0837 80.2805 30.8525 79.0502 30.8525 77.9736C30.8525 76.9996 30.8012 73.7699 30.8012 70.3352C20.5 72.2319 17.835 67.8232 17.015 65.5163C16.5537 64.3372 14.555 60.6974 12.8125 59.7234C11.3775 58.9544 9.3275 57.0576 12.7613 57.0063C15.99 56.9551 18.2962 59.9797 19.065 61.21C22.755 67.4131 28.6488 65.6701 31.0062 64.5935C31.365 61.9277 32.4412 60.1335 33.62 59.1082C24.4975 58.0829 14.965 54.5456 14.965 38.8586C14.965 34.3986 16.5538 30.7076 19.1675 27.8367C18.7575 26.8114 17.3225 22.6077 19.5775 16.9686C19.5775 16.9686 23.0112 15.8921 30.8525 21.1723C34.1325 20.2496 37.6175 19.7882 41.1025 19.7882C44.5875 19.7882 48.0725 20.2496 51.3525 21.1723C59.1937 15.8408 62.6275 16.9686 62.6275 16.9686C64.8825 22.6077 63.4475 26.8114 63.0375 27.8367C65.6512 30.7076 67.24 34.3473 67.24 38.8586C67.24 54.5969 57.6562 58.0829 48.5337 59.1082C50.02 60.3898 51.3012 62.8505 51.3012 66.6954C51.3012 72.1807 51.25 76.5895 51.25 77.9736C51.25 79.0502 52.0187 80.3318 54.0687 79.9217C62.2081 77.173 69.2806 71.9408 74.2912 64.9606C79.3018 57.9808 81.9979 49.6049 82 41.0118C82 18.3528 63.6525 0 41 0Z" fill="white"/>
</g>
</svg>
