<svg width="57" height="80" viewBox="0 0 57 80" fill="none" xmlns="http://www.w3.org/2000/svg">
<g id="html" class="html">
<g id="Group">
<path id="Vector" d="M56.6772 15.7219L51.5138 73.5655L28.3039 80L5.15797 73.5745L0 15.7219H56.6772Z" fill="#E44D26"/>
<path id="Vector_2" d="M28.3386 75.0817L47.0932 69.8822L51.5057 20.4522H28.3386V75.0817Z" fill="#F16529"/>
<path id="Vector_3" d="M18.3011 34.6431H28.3386V27.5477H10.5467L10.7165 29.4513L12.4604 49.0042H28.3386V41.9089H18.9495L18.3011 34.6431Z" fill="#EBEBEB"/>
<path id="Vector_4" d="M19.9002 52.552H12.7775L13.7716 63.6928L28.306 67.7276L28.3386 67.7186V60.3364L28.3075 60.3447L20.4053 58.2109L19.9002 52.552Z" fill="#EBEBEB"/>
<path id="Vector_5" d="M5.27325 0H8.87904V3.5625H12.1775V0H15.7834V10.7881H12.1776V7.17563H8.87919V10.7881H5.27341L5.27325 0Z" fill="black"/>
<path id="Vector_6" d="M20.5251 3.5775H17.3508V0H27.307V3.5775H24.1312V10.7881H20.5253L20.5251 3.5775Z" fill="black"/>
<path id="Vector_7" d="M28.8872 0H32.6471L34.9599 3.79062L37.2703 0H41.0316V10.7881H37.4406V5.44094L34.9599 9.27672H34.8978L32.4153 5.44094V10.7881H28.8872V0Z" fill="black"/>
<path id="Vector_8" d="M42.8261 0H46.433V7.22219H51.5038V10.7881H42.8261V0Z" fill="black"/>
<path id="Vector_9" d="M28.3141 49.0042H37.0513L36.2277 58.2064L28.3141 60.3424V67.7242L42.86 63.6928L42.9667 62.4941L44.6341 43.8142L44.8072 41.9089H28.3141V49.0042Z" fill="white"/>
<path id="Vector_10" d="M28.3141 34.6258V34.6431H45.4528L45.5952 33.0483L45.9185 29.4513L46.0882 27.5477H28.3141V34.6258Z" fill="white"/>
</g>
</g>
</svg>
