<svg width="80" height="80" viewBox="0 0 80 80" fill="none" xmlns="http://www.w3.org/2000/svg">
<g id="JS" class="JS">
<path id="Vector" d="M68 0H12C5.37258 0 0 5.37258 0 12V68C0 74.6274 5.37258 80 12 80H68C74.6274 80 80 74.6274 80 68V12C80 5.37258 74.6274 0 68 0Z" fill="#F7DF1E"/>
<path id="Vector_2" d="M50.8694 47.9C52.4421 50.5208 54.6439 52.3708 58.2611 52.3708C61.4065 52.3708 63.451 50.8292 63.451 48.6708C63.451 46.2042 61.4065 45.2792 57.9466 43.7375L56.0593 42.9667C50.5549 40.6542 46.9377 37.8792 46.9377 31.8667C46.9377 26.3167 51.184 22 57.9466 22C62.822 22 66.2819 23.6958 68.6409 28.0125L62.822 31.7125C61.5638 29.4 60.1484 28.475 57.9466 28.475C55.7448 28.475 54.3294 29.8625 54.3294 31.7125C54.3294 33.8708 55.7448 34.7958 59.0475 36.1833L60.9347 36.9542C67.3828 39.7292 71 42.35 71 48.6708C71 55.3 65.6528 59 58.4184 59C51.3412 59 46.7804 55.7625 44.5786 51.4458L50.8694 47.9ZM24.1335 48.5167C25.3917 50.5208 26.3353 52.3708 29.0089 52.3708C31.5252 52.3708 33.0979 51.4458 33.0979 47.7458V22.1542H40.6469V47.4375C40.6469 55.1458 36.0861 58.5375 29.3234 58.5375C23.1899 58.5375 19.73 55.4542 18 51.7542L24.1335 48.5167Z" fill="black"/>
</g>
</svg>
