<svg width="93" height="185" viewBox="0 0 93 185" fill="none" xmlns="http://www.w3.org/2000/svg">
<g id="logo-1" class="logo-1">
<g id="Group 5247">
<path id="Vector 1102" d="M38.6582 21.017L57.6752 40.0341V33.4043L45.288 21.017L57.6752 8.62979V2L38.6582 21.017Z" fill="#D9D9D9" stroke="white"/>
<path id="Vector 1103" d="M76.6924 36.021L57.6753 17.004V23.6338L70.0626 36.021L57.6753 48.4083V55.0381L76.6924 36.021Z" fill="#D9D9D9" stroke="white"/>
<path id="Vector 1101" d="M91.52 43.5234H73.2009C72.7939 71.0894 73.0267 128.74 73.0267 133.2C73.0267 137.387 72.3434 142.063 70.5842 146.285C68.8395 150.472 65.8735 155.183 58.1969 161.464C48.6012 169.315 35.5161 165.651 34.9926 165.302C34.4692 164.953 28.3629 164.604 22.6054 155.881C16.848 147.158 21.3841 140.702 23.3033 138.783C24.8386 137.248 28.0721 136.864 29.4097 137.038C35.6905 139.307 37.3305 137.597 39.7033 135.643C42.0761 133.689 41.099 128.315 40.4012 126.221C38.6565 122.732 35.3551 120.027 27.316 119.243C13.0097 117.847 5.08754 131.672 3.2407 135.992C2.71857 137.213 -2.86726 150.472 5.85615 163.383C14.5796 176.294 34.8179 191.647 63.4307 178.911C86.3209 168.722 91.6945 144.192 91.52 133.2V43.5234Z" fill="#D9D9D9" stroke="white"/>
<path id="Vector 1100" d="M61.3388 76.1488V104.238C56.4534 99.1787 49.998 92.3744 39.5299 85.3957C36.0406 82.4297 27.4916 76.4978 24.5258 71.7871C22.6648 69.6935 19.6058 63.4127 22.2577 55.0382C24.9097 46.6637 34.6448 43.9304 38.8321 43.6978C36.564 58.1786 41.1002 63.7616 61.3388 76.1488Z" fill="#D9D9D9" stroke="white"/>
</g>
</g>
</svg>
