<svg width="92" height="80" viewBox="0 0 92 80" fill="none" xmlns="http://www.w3.org/2000/svg">
<g id="React">
<path id="Vector" d="M54 39.9998C54 35.582 50.4185 32 46 32C41.5821 32 38 35.582 38 39.9998C38 44.4183 41.5821 48 46 48C50.4185 48 54 44.4183 54 39.9998Z" fill="#53C1DE"/>
<path id="Vector_2" fill-rule="evenodd" clip-rule="evenodd" d="M72.6812 25.0883C74.416 18.2301 76.5967 5.51224 68.9092 1.20049C61.2576 -3.09247 51.3004 5.13363 46.0426 10.0713C40.8002 5.18283 30.5633 -3.0081 22.8823 1.31735C15.2337 5.6247 17.5924 18.1317 19.3657 25.0329C12.2308 27.0043 0 31.2505 0 39.9258C0 48.5766 12.2181 53.1963 19.3107 55.1658C17.5308 62.1052 15.2903 74.4335 22.9487 78.7314C30.6584 83.056 40.8633 75.06 46.1699 70.0683C51.4614 75.0351 61.3229 83.0834 68.9761 78.7735C76.6532 74.4501 74.6537 61.9028 72.8803 54.9615C79.7557 52.9877 92 48.4686 92 39.9258C92 31.3338 79.7036 27.0532 72.6812 25.0883ZM71.8097 51.2831C70.6453 47.6972 69.0736 43.884 67.1511 39.9449C68.9862 36.0988 70.4968 32.3348 71.6287 28.772C76.7768 30.224 88.0701 33.5425 88.0701 39.9258C88.0701 46.3692 77.2328 49.7191 71.8097 51.2831ZM67.0067 75.4646C61.2965 78.68 52.8144 70.9834 48.9066 67.3258C51.4991 64.5674 54.0899 61.3606 56.6183 57.7997C61.0662 57.416 65.2679 56.7883 69.0785 55.9314C70.3266 60.8412 72.7419 72.2348 67.0067 75.4646ZM24.9124 75.4188C19.2017 72.2154 21.8119 61.2141 23.1213 56.1025C26.8896 56.9135 31.061 57.4969 35.5194 57.8486C38.0644 61.3329 40.7302 64.5357 43.4166 67.3406C40.0976 70.464 30.6498 78.6369 24.9124 75.4188ZM3.9299 39.9258C3.9299 33.4585 15.1557 30.164 20.4211 28.7157C21.5725 32.3585 23.0826 36.1674 24.9051 40.0191C23.059 43.928 21.5273 47.7972 20.3653 51.4831C15.3446 50.0849 3.9299 46.3972 3.9299 39.9258ZM24.8513 4.62627C30.5854 1.39741 39.4824 9.26101 43.2888 12.8004C40.6162 15.5924 37.9748 18.7711 35.4516 22.2354C31.1248 22.6255 26.9828 23.252 23.1751 24.0914C21.7465 18.5253 19.1235 7.85166 24.8513 4.62627ZM59.4298 26.3911C62.3653 26.7514 65.1777 27.2308 67.8184 27.8172C67.0257 30.2892 66.0376 32.8741 64.8738 35.524C63.1868 32.4101 61.376 29.3588 59.4298 26.3911ZM46.0438 15.5326C47.8566 17.443 49.672 19.5763 51.4581 21.8908C47.8354 21.724 44.2069 21.7234 40.5843 21.8883C42.3718 19.5953 44.2029 17.4652 46.0438 15.5326ZM27.1599 35.5212C26.0154 32.8806 25.0362 30.2843 24.2365 27.7769C26.8615 27.2055 29.6608 26.7385 32.5772 26.384C30.6256 29.3452 28.8178 32.3954 27.1599 35.5212ZM32.6609 53.7406C29.6482 53.4135 26.8065 52.9701 24.1824 52.4145C24.9947 49.8631 25.9955 47.2108 27.1644 44.5132C28.8451 47.6717 30.6805 50.7514 32.6609 53.7406ZM46.1527 64.5892C44.29 62.6338 42.4319 60.4711 40.6174 58.1449C44.2606 58.284 47.9108 58.2843 51.5537 58.1262C49.7622 60.4948 47.9532 62.6606 46.1527 64.5892ZM64.9112 44.376C66.1409 47.1028 67.1775 49.7406 68.0009 52.2489C65.3332 52.8412 62.4533 53.3181 59.4188 53.6723C61.3793 50.6483 63.219 47.5495 64.9112 44.376ZM54.425 54.1357C48.8523 54.5231 43.2449 54.5188 37.6703 54.1674C34.5028 49.6661 31.683 44.9323 29.2489 40.0178C31.6713 35.1135 34.4706 30.3889 37.6231 25.8948C43.2017 25.4846 48.8146 25.4834 54.3932 25.8972C57.5187 30.3911 60.3137 35.1034 62.7921 39.9634C60.3431 44.8652 57.5291 49.5994 54.425 54.1357ZM66.9463 4.51261C72.6818 7.73089 70.1288 19.1608 68.8758 24.1311C65.059 23.2741 60.9141 22.6366 56.5748 22.2403C54.0466 18.7386 51.4274 15.5544 48.798 12.7984C52.6531 9.1828 61.2662 1.32581 66.9463 4.51261Z" fill="#53C1DE"/>
</g>
</svg>
