<svg width="107" height="80" viewBox="0 0 107 80" fill="none" xmlns="http://www.w3.org/2000/svg">
<g id="Sass">
<g id="Group">
<path id="Vector" d="M91.8557 45.9889C88.1341 46.0084 84.8997 46.9047 82.1913 48.2296C81.1976 46.2617 80.2039 44.508 80.0285 43.2221C79.8336 41.7217 79.5998 40.806 79.8336 39.0134C80.0675 37.2208 81.1196 34.6683 81.1002 34.4735C81.0807 34.2786 80.8663 33.3628 78.723 33.3433C76.5797 33.3239 74.7287 33.7525 74.5144 34.3176C74.3 34.8826 73.8908 36.1686 73.618 37.4936C73.2478 39.442 69.3314 46.3981 67.0907 50.0417C66.3698 48.6193 65.7463 47.3723 65.6099 46.3786C65.415 44.8783 65.1812 43.9625 65.415 42.1699C65.6488 40.3773 66.701 37.8248 66.6815 37.63C66.662 37.4351 66.4477 36.5193 64.3044 36.4999C62.1611 36.4804 60.3101 36.909 60.0957 37.4741C59.8814 38.0391 59.6476 39.3641 59.1994 40.6501C58.7513 41.9361 53.5489 53.5489 52.185 56.5495C51.4835 58.0888 50.8795 59.3164 50.4508 60.1542C50.4508 60.1542 50.4313 60.2127 50.3729 60.3101C50.0027 61.031 49.7883 61.4207 49.7883 61.4207C49.7883 61.4207 49.7883 61.4207 49.7883 61.4402C49.4961 61.9663 49.1843 62.4534 49.0284 62.4534C48.9115 62.4534 48.6972 61.0505 49.0674 59.141C49.8468 55.1077 51.6978 48.8336 51.6784 48.6193C51.6784 48.5024 52.0291 47.4113 50.4703 46.8462C48.9505 46.2811 48.4049 47.2164 48.2685 47.2164C48.1321 47.2164 48.0347 47.5476 48.0347 47.5476C48.0347 47.5476 49.7299 40.4942 44.8003 40.4942C41.7217 40.4942 37.4741 43.865 35.3697 46.9047C34.0448 47.6256 31.2195 49.1649 28.1994 50.8211C27.0498 51.4641 25.8612 52.107 24.7506 52.7111C24.6727 52.6331 24.5947 52.5357 24.5168 52.4578C18.5545 46.0863 7.52618 41.5853 7.99381 33.0316C8.16917 29.9141 9.24082 21.7305 29.1736 11.7933C45.5797 3.70722 58.6344 5.94795 60.8946 10.9165C64.129 18.0089 53.8996 31.1806 36.948 33.09C30.4791 33.811 27.0887 31.3169 26.2314 30.3817C25.3351 29.4075 25.1987 29.349 24.8675 29.5438C24.3219 29.8361 24.6727 30.7129 24.8675 31.2195C25.3741 32.5445 27.459 34.8826 30.9857 36.0322C34.1032 37.0454 41.6827 37.6105 50.86 34.0643C61.1284 30.0894 69.1561 19.0416 66.7984 9.78643C64.4408 0.394832 48.8531 -2.70322 34.1032 2.53814C25.3351 5.65568 15.8266 10.5658 8.98752 16.9568C0.862432 24.5558 -0.423553 31.1611 0.102532 33.9279C1.99254 43.7481 15.5344 50.1391 20.9511 54.8739C20.6783 55.0297 20.425 55.1661 20.2107 55.283C17.5023 56.6275 7.17545 62.0247 4.60348 67.7337C1.68079 74.2026 5.07111 78.84 7.31185 79.4635C14.2679 81.3924 21.4187 77.9242 25.2572 72.1957C29.0957 66.4672 28.628 59.0241 26.8549 55.6143C26.8354 55.5753 26.816 55.5363 26.777 55.4974C27.4784 55.0882 28.1994 54.6595 28.9008 54.2504C30.2842 53.432 31.6482 52.6721 32.8172 52.0486C32.1548 53.8607 31.6676 56.0235 31.4338 59.141C31.1416 62.8041 32.6419 67.5584 34.6098 69.4289C35.4866 70.2472 36.5193 70.2667 37.1818 70.2667C39.481 70.2667 40.5137 68.3572 41.6633 66.097C43.0661 63.3302 44.3326 60.1152 44.3326 60.1152C44.3326 60.1152 42.7544 68.8054 47.041 68.8054C48.5998 68.8054 50.178 66.779 50.8795 65.7463V65.7658C50.8795 65.7658 50.9185 65.7073 50.9964 65.5709C51.1523 65.3176 51.2497 65.1618 51.2497 65.1618V65.1228C51.8732 64.0316 53.2761 61.5571 55.361 57.4458C58.0498 52.146 60.6413 45.5212 60.6413 45.5212C60.6413 45.5212 60.8751 47.1385 61.674 49.8273C62.1416 51.4056 63.1158 53.1397 63.8952 54.8154C63.2717 55.6922 62.882 56.1793 62.882 56.1793C62.882 56.1793 62.882 56.1793 62.9015 56.1988C62.3949 56.8613 61.8493 57.5822 61.2453 58.2837C59.1215 60.8167 56.5885 63.7199 56.2378 64.5577C55.8286 65.5514 55.926 66.2724 56.7054 66.8569C57.2704 67.2856 58.2836 67.344 59.3163 67.2856C61.2258 67.1492 62.5703 66.6816 63.2327 66.3893C64.2654 66.0191 65.4735 65.454 66.6036 64.6162C68.6884 63.0769 69.9549 60.8751 69.838 57.9719C69.7796 56.3742 69.2535 54.7764 68.6105 53.2761C68.8054 53.0033 68.9807 52.7306 69.1756 52.4578C72.4685 47.6451 75.021 42.3647 75.021 42.3647C75.021 42.3647 75.2548 43.982 76.0536 46.6708C76.4433 48.0348 77.2422 49.5156 77.9436 50.9575C74.8456 53.471 72.9361 56.3937 72.2541 58.3032C71.0266 61.8494 71.9813 63.4471 73.7934 63.8173C74.6118 63.9927 75.7808 63.603 76.6382 63.2328C77.7293 62.882 79.0153 62.278 80.2428 61.3817C82.3277 59.8424 84.3346 57.6991 84.2177 54.7959C84.1592 53.471 83.8085 52.1655 83.3214 50.899C85.9518 49.8079 89.3421 49.2038 93.6677 49.7104C102.942 50.8016 104.774 56.5885 104.423 59.0241C104.073 61.4597 102.124 62.7846 101.481 63.1938C100.838 63.603 100.624 63.7394 100.682 64.0316C100.76 64.4603 101.072 64.4408 101.617 64.3629C102.377 64.2265 106.489 62.3949 106.664 57.9135C106.956 52.185 101.501 45.9304 91.8557 45.9889ZM20.3081 70.1108C17.2295 73.4622 12.9429 74.7287 11.0919 73.657C9.10443 72.5075 9.88382 67.5584 13.6638 64.0122C15.963 61.8494 18.9247 59.8424 20.8926 58.6149C21.3408 58.3421 22.0033 57.9524 22.8021 57.4653C22.9385 57.3874 23.0165 57.3484 23.0165 57.3484C23.1723 57.251 23.3282 57.1536 23.4841 57.0561C24.8675 62.1221 23.5425 66.5841 20.3081 70.1108ZM42.7154 54.8739C41.6438 57.4848 39.403 64.168 38.0391 63.7978C36.87 63.4861 36.1491 58.4201 37.8053 53.4125C38.6431 50.899 40.4162 47.8984 41.4489 46.7293C43.1246 44.8588 44.9756 44.2353 45.4238 44.9952C45.9888 45.9889 43.3779 53.2372 42.7154 54.8739ZM61.2063 63.7199C60.7582 63.9537 60.3295 64.1096 60.1347 63.9927C59.9983 63.9147 60.3295 63.603 60.3295 63.603C60.3295 63.603 62.6482 61.1089 63.564 59.9788C64.0901 59.3164 64.7136 58.537 65.3761 57.6602V57.9135C65.3761 60.8946 62.4923 62.9015 61.2063 63.7199ZM75.4691 60.466C75.1379 60.2321 75.1963 59.4528 76.3069 57.0172C76.7356 56.0624 77.7488 54.4647 79.4829 52.9254C79.6778 53.5489 79.8142 54.1529 79.7947 54.718C79.7752 58.4785 77.0863 59.8814 75.4691 60.466Z" fill="#CD6799"/>
</g>
</g>
</svg>
