<svg width="80" height="80" viewBox="0 0 80 80" fill="none" xmlns="http://www.w3.org/2000/svg">
<g id="TS">
<path id="Vector" d="M68 0H12C5.37258 0 0 5.37258 0 12V68C0 74.6274 5.37258 80 12 80H68C74.6274 80 80 74.6274 80 68V12C80 5.37258 74.6274 0 68 0Z" fill="#3178C6"/>
<path id="Vector_2" d="M36.6873 44.223H46.5306V37.8625H19V44.223H28.8433V72.6122H36.6873V44.223ZM49.6067 71.0608C50.8525 71.7124 52.3751 72.1933 54.0669 72.5191C55.7588 72.8449 57.6044 73 59.45 73C61.2956 73 62.9875 72.8294 64.6793 72.4726C66.3711 72.1157 67.7553 71.5262 68.9858 70.7661C70.2316 69.9439 71.2928 68.9045 71.908 67.5083C72.5232 66.1121 73 64.5608 73 62.5441C73 61.1324 72.7847 59.9068 72.3694 58.8209C71.9541 57.735 71.3543 56.8042 70.5238 56.0285C69.7394 55.2063 68.832 54.4772 67.7553 53.8567C66.6787 53.2361 65.4483 52.5846 64.0641 51.9951C63.049 51.5762 62.2185 51.1729 61.2956 50.7695C60.4959 50.3662 59.8038 49.9629 59.2962 49.5595C58.7271 49.1407 58.2965 48.7063 57.9889 48.2564C57.6813 47.791 57.5275 47.2791 57.5275 46.7051C57.5275 46.1776 57.6644 45.6967 57.9428 45.2623C58.2211 44.828 58.6041 44.4712 59.0963 44.1609C59.5884 43.8506 60.2036 43.6179 60.9419 43.4473C61.6648 43.2767 62.4645 43.1991 63.4027 43.1991C64.0487 43.1991 64.7254 43.2472 65.4022 43.3449C66.1097 43.4426 66.8325 43.5931 67.5554 43.7948C68.2783 43.9965 68.9858 44.2447 69.7086 44.5549C70.3854 44.8652 71.016 45.222 71.5543 45.6254V38.3341C70.3854 37.8843 69.0934 37.543 67.7092 37.3258C66.325 37.1086 64.787 37 62.9413 37C61.0957 37 59.4039 37.2017 57.712 37.5895C56.0202 37.9773 54.636 38.5979 53.4056 39.4511C52.1598 40.2888 51.2524 41.3127 50.4833 42.7089C49.7605 44.012 49.4067 45.5012 49.4067 47.3628C49.4067 49.6898 50.0681 51.7065 51.4062 53.2579C52.7289 54.9643 54.7898 56.2054 57.4044 57.4464C58.4657 57.8808 59.4039 58.3152 60.3267 58.734C61.2495 59.1529 62.0185 59.5873 62.6337 60.0371C63.2951 60.487 63.818 60.9835 64.1717 61.5109C64.5563 62.0384 64.7562 62.6589 64.7562 63.3725C64.7562 63.8689 64.6362 64.3343 64.4025 64.7687C64.1687 65.2031 63.8026 65.5754 63.3105 65.8856C62.8183 66.1959 62.2185 66.4441 61.4648 66.6303C60.742 66.8009 59.9268 66.894 58.8502 66.894C57.1584 66.894 55.4665 66.5992 53.9285 66.0097C52.2367 65.4202 50.6987 64.536 49.6067 63.6145V71.0608Z" fill="white"/>
</g>
</svg>
